<?xml version="1.0" encoding="UTF-8"?>
<svg width="380px" height="297px" viewBox="0 0 380 297" version="1.1" xmlns="http://www.w3.org/2000/svg" xmlns:xlink="http://www.w3.org/1999/xlink">
    <!-- Generator: Sketch 60.1 (88133) - https://sketch.com -->
    <title>咖啡</title>
    <desc>Created with Sketch.</desc>
    <defs>
        <polygon id="path-1" points="0.1943 0.6848 370.498 0.6848 370.498 171.9998 0.1943 171.9998"></polygon>
    </defs>
    <g id="页面-1" stroke="none" stroke-width="1" fill="none" fill-rule="evenodd">
        <g id="画板" transform="translate(-4011.000000, -1426.000000)">
            <g id="咖啡" transform="translate(4011.000000, 1426.000000)">
                <g id="编组" transform="translate(9.000000, 124.524000)">
                    <mask id="mask-2" fill="white">
                        <use xlink:href="#path-1"></use>
                    </mask>
                    <g id="Clip-2"></g>
                    <path d="M370.4983,86.3428 C370.4983,133.6498 287.6023,171.9998 185.3463,171.9998 C83.0903,171.9998 0.1943,133.6498 0.1943,86.3428 C0.1943,39.0348 83.0903,0.6848 185.3463,0.6848 C287.6023,0.6848 370.4983,39.0348 370.4983,86.3428" id="Fill-1" fill="#BFB4B2" mask="url(#mask-2)"></path>
                </g>
                <path d="M351.8244,193.8619 C351.8244,244.4219 273.0654,285.4089 175.9124,285.4089 C78.7584,285.4089 0.0004,244.4219 0.0004,193.8619 C0.0004,143.3029 78.7584,102.3159 175.9124,102.3159 C273.0654,102.3159 351.8244,143.3029 351.8244,193.8619" id="Fill-3" fill="#F2F2F2"></path>
                <path d="M296.636,193.8619 C296.636,228.5599 242.586,256.6879 175.912,256.6879 C109.238,256.6879 55.188,228.5599 55.188,193.8619 C55.188,159.1649 109.238,131.0359 175.912,131.0359 C242.586,131.0359 296.636,159.1649 296.636,193.8619" id="Fill-5" fill="#D1C9CB"></path>
                <path d="M272.843,193.8619 C272.843,211.7069 229.446,226.1729 175.912,226.1729 C122.379,226.1729 78.981,211.7069 78.981,193.8619 C78.981,176.0179 122.379,161.5509 175.912,161.5509 C229.446,161.5509 272.843,176.0179 272.843,193.8619" id="Fill-7" fill="#5B423E"></path>
                <path d="M287.2033,46.6705 C287.2033,72.4455 290.7933,204.6325 175.9123,204.6325 C61.0313,204.6325 64.6203,72.4455 64.6203,46.6705 C64.6203,20.8955 114.4473,0.0005 175.9123,0.0005 C237.3763,0.0005 287.2033,20.8955 287.2033,46.6705" id="Fill-9" fill="#FFFFFF"></path>
                <path d="M65.2922,74.9708 C65.5752,79.3178 65.9752,83.9508 66.5362,88.7948 C89.0042,103.9728 129.1032,114.0828 174.8372,114.0828 C222.1952,114.0828 263.5172,103.2438 285.4712,87.1608 C285.9372,82.9068 286.2802,78.8238 286.5322,74.9678 C264.5782,91.0488 223.2662,101.8858 175.9122,101.8858 C128.5612,101.8858 87.2482,91.0508 65.2922,74.9708" id="Fill-11" fill="#969493"></path>
                <path d="M67.4236,95.609 C68.1046,100.336 68.9506,105.205 69.9966,110.143 C92.9836,124.083 131.3636,133.217 174.8376,133.217 C219.9056,133.217 259.5066,123.403 282.1526,108.593 C283.0506,104.187 283.7906,99.843 284.4006,95.613 C261.9666,110.859 221.7696,121.021 175.9126,121.021 C130.0516,121.021 89.8566,110.857 67.4236,95.609" id="Fill-13" fill="#969493"></path>
                <path d="M280.0237,48.4654 C280.0237,72.5784 233.4117,92.1254 175.9127,92.1254 C118.4137,92.1254 71.8007,72.5784 71.8007,48.4654 C71.8007,24.3534 118.4137,4.8054 175.9127,4.8054 C233.4117,4.8054 280.0237,24.3534 280.0237,48.4654" id="Fill-15" fill="#5B423E"></path>
                <path d="M273.2238,136.6441 C273.2988,137.3791 273.6808,139.7441 275.5838,140.8541 C277.1098,141.7441 281.9898,143.0991 294.3188,136.5231 C313.0118,126.5531 327.9048,84.2001 323.1358,65.1281 C321.3048,57.8041 317.3968,57.8041 315.9238,57.8041 C295.2668,57.8041 283.6448,80.4041 282.0388,83.7511 L273.2238,136.6441 Z M279.0658,149.5591 C276.1618,149.5591 273.6368,148.9071 271.4718,147.6071 C266.5988,144.6841 265.2988,139.2011 265.2988,136.4211 L265.3538,135.7711 L274.4098,81.4361 L274.6068,80.9861 C275.1608,79.7171 288.5238,49.8971 315.9238,49.8971 C320.2398,49.8971 327.9108,51.6271 330.8058,63.2101 C336.4038,85.5981 320.1038,131.7321 298.0398,143.4991 C290.4528,147.5451 284.1708,149.5591 279.0658,149.5591 L279.0658,149.5591 Z" id="Fill-17" fill="#FFFFFF"></path>
                <path d="M210.1555,48.4654 C210.1555,56.3964 194.8245,62.8254 175.9125,62.8254 C156.9995,62.8254 141.6685,56.3964 141.6685,48.4654 C141.6685,40.5344 156.9995,34.1054 175.9125,34.1054 C194.8245,34.1054 210.1555,40.5344 210.1555,48.4654" id="Fill-19" fill="#382220"></path>
                <path d="M172.322,81.6168 C117.951,81.6168 92.472,54.9868 91.415,53.8538 C90.421,52.7898 90.479,51.1218 91.543,50.1288 C92.605,49.1378 94.274,49.1918 95.266,50.2558 C95.61,50.6188 120.49,76.3458 172.322,76.3458 C173.778,76.3458 174.958,77.5258 174.958,78.9808 C174.958,80.4368 173.778,81.6168 172.322,81.6168" id="Fill-21" fill="#382220"></path>
                <path d="M240.5305,67.2564 C239.3495,67.2564 238.2755,66.4574 237.9755,65.2594 C237.6235,63.8484 238.4815,62.4174 239.8925,62.0634 C247.6515,60.1204 260.8105,55.3774 263.0885,50.9234 C263.4075,50.2974 263.3715,49.8884 263.2575,49.5524 C246.1315,17.4514 169.6165,20.5474 168.8515,20.5834 C167.4085,20.6494 166.1645,19.5254 166.0985,18.0694 C166.0325,16.6154 167.1575,15.3834 168.6125,15.3174 C171.9065,15.1704 249.4775,12.0574 267.9955,47.2374 L268.1115,47.4864 C268.8735,49.3924 268.7595,51.4104 267.7805,53.3234 C263.6765,61.3494 243.4635,66.6044 241.1725,67.1774 C240.9575,67.2314 240.7425,67.2564 240.5305,67.2564" id="Fill-23" fill="#382220"></path>
                <path d="M176.4709,58.7584 C153.0069,58.7584 136.4889,49.9984 135.7969,49.6264 C135.1559,49.2804 134.9179,48.4814 135.2629,47.8414 C135.6079,47.1994 136.4099,46.9624 137.0459,47.3054 C137.2109,47.3934 153.7049,56.1224 176.4709,56.1224 C177.1999,56.1224 177.7889,56.7134 177.7889,57.4404 C177.7889,58.1684 177.1999,58.7584 176.4709,58.7584" id="Fill-25" fill="#5B423E"></path>
                <path d="M208.6096,56.9630026 C208.1086,56.964 207.6306,56.678 207.4106,56.193 C207.1076,55.532 207.3986,54.751 208.0596,54.447 C211.9516,52.665 215.6836,50.097 215.8726,49.086 C208.3396,39.815 175.2816,40.719 174.9516,40.731 C174.1776,40.747 173.6156,40.181 173.5936,39.455 C173.5706,38.728 174.1416,38.12 174.8686,38.097 C176.3066,38.054 209.9586,37.136 218.0746,47.62 L218.1686,47.758 C218.5436,48.396 218.6166,49.127 218.3806,49.875 C217.4196,52.931 210.5286,56.216 209.1566,56.843 C208.9786,56.925 208.7926,56.9630026 208.6096,56.9630026" id="Fill-27" fill="#5B423E"></path>
            </g>
        </g>
    </g>
</svg>