<svg xml:space="preserve" style="enable-background:new 0 0 220 220;" viewBox="0 0 220 220" y="0px" x="0px" xmlns:xlink="http://www.w3.org/1999/xlink" xmlns="http://www.w3.org/2000/svg" id="图层_1" version="1.1">
<style type="text/css">
	.st0{fill:#FF9FBF;}
	.st1{opacity:0.3;}
	.st2{fill:#E05584;}
	.st3{fill:#EFD8E4;}
	.st4{opacity:0.2;}
	.st5{fill:#916D79;}
	.st6{opacity:0.4;}
	.st7{fill:#E5C1D3;}
	.st8{fill:#DBD8DF;}
	.st9{fill:#F5F5F5;}
	.st10{fill:#F9E8F0;}
	.st11{fill:#9CAEDB;}
	.st12{opacity:0.53;}
	.st13{fill:#FFFFFF;}
	.st14{fill:#0C0C0C;}
	.st15{opacity:0.1;fill:#3D3D3D;}
	.st16{fill:#3D3D3D;}
</style>
<g>
	<g>
		<g>
			<path d="M83.4,81.5l-34.6,80.4c-3.8,6.5,4.3,18.2,18.1,26.3c13.8,8.1,28,9.4,31.8,2.9l53-69.2L83.4,81.5z" class="st0"></path>
			<path d="M50.1,174.6c-3.3-5-4.3-9.7-2.2-13.2l35-81.4l70.3,41.6l-53.7,70.2c-4.1,7-18.7,5.8-33.2-2.7
				C59.1,184.8,53.4,179.6,50.1,174.6z M83.9,83l-34.1,79.3c-3.5,6,4.7,17.4,17.7,25c13.1,7.6,27,9.2,30.4,3.3l52.3-68.4L83.9,83z"></path>
		</g>
		<g class="st1">
			<g>
				<path d="M97.9,190.5l53-69.3L83.4,81.5c0,0,10.4,21.9,34.1,39.6c7.9,5.8,9.8,16.8,4.4,25l-19.6,29.8
					c-8.1,12.2-23.9,16.8-37.1,10.5c-1.7-0.8-3.4-1.7-5.3-2.8c2.1,1.7,4.4,3.3,7,4.7C80.7,196.3,94.2,197,97.9,190.5z" class="st2"></path>
			</g>
		</g>
		<g>
			<path d="M167.9,107.5L167.9,107.5c2-9.1-11.7-25.1-32.4-37.2c-21.8-12.8-43.5-16.6-49.3-9l0,0
				c-1.7,1.4-3.6,3.8-4.7,5.7l-0.5,0.9c-5,8.6,9.9,26.7,33.4,40.4s46.5,17.9,51.6,9.3C168.6,113.2,167.9,107.5,167.9,107.5z" class="st3"></path>
			<path d="M83.3,82.5c-3.9-5.9-5.2-11.2-3-15l0.5-0.9c1.1-1.9,3-4.4,4.9-5.9l0.1-0.1c6.4-7.6,28.2-3.7,50,9.1
				c20.6,12.1,34.7,28.3,32.8,37.8c0.1,0.7,0.5,6-2.2,10.4c-5.3,9-28.3,5-52.5-9.1C99.8,100.5,88.9,90.9,83.3,82.5z M86.3,62.1
				c-1.6,1.4-3.3,3.7-4.2,5.2l-0.5,0.9c-4.8,8.2,10,25.9,33.1,39.4c23.1,13.5,45.8,17.8,50.6,9.6c2.2-3.6,2.1-8.1,2-9.3l-0.1-0.1
				l0.1-0.5c1.9-8.9-11.9-24.6-32.1-36.5c-21.1-12.4-42.8-16.5-48.4-9.2l-0.4,0.5L86.3,62.1z"></path>
		</g>
		<g class="st4">
			<path d="M90.7,64.6l0,0.4c0,0,51,11.6,64.8,46.2c4.1,0,7.2-0.9,9-2.9c-4.2-9.1-16.2-20.6-32.4-30.1
				C116.4,69,100.7,64.1,90.7,64.6z" class="st5"></path>
		</g>
		<g class="st6">
			<path d="M165.5,117c-3.7,6.4-17.7,5.5-34.2-1.2l9.6-4.5l0,0c12.6,3.8,22.7,3.3,25.8-2c0.4-0.6,0.6-1.3,0.8-2.1l0,0
				C167.5,107.2,168.1,112.7,165.5,117z" class="st7"></path>
		</g>
		<g>
			<path d="M166.3,110.4c-0.2,0.4-0.4,0.7-0.7,1c-2.5-9.4-15.5-22.7-33.6-33.3C112.6,66.7,93.4,62,84.7,65.7
				c0.1-0.9,0.4-1.8,0.9-2.6c5-8.6,27.2-4.9,49.5,8.1C157.4,84.3,171.4,101.8,166.3,110.4z" class="st8"></path>
		</g>
		<g>
			<path d="M135.5,70.3C113,57.2,90.8,53.4,85.7,62c-5,8.6,9.1,26.2,31.6,39.3s44.8,16.9,49.8,8.3
				C172.1,101.1,158,83.5,135.5,70.3z M119.6,98.8C98.8,86.6,85.5,70.6,89.9,63.1c4.4-7.5,24.8-3.8,45.6,8.4s34.1,28.2,29.7,35.7
				C160.8,114.7,140.4,110.9,119.6,98.8z" class="st9"></path>
			<path d="M88.4,76.7c-4-6.1-5.1-11.3-3-14.9c5.1-8.7,27.6-5.1,50.3,8.2s36.8,31.1,31.7,39.8c-5.1,8.7-27.6,5.1-50.3-8.2
				C106.3,95.3,97,87.6,91,80.2C90,79,89.2,77.8,88.4,76.7z M135.3,70.6C113.1,57.6,91,53.8,86,62.2c-2.3,4-0.4,10.3,5.5,17.6
				c5.9,7.4,15.2,15,26,21.3c22.3,13,44.4,16.8,49.3,8.4C171.7,101.1,157.6,83.7,135.3,70.6L135.3,70.6z M92.2,75.6
				c-3.4-5.1-4.5-9.6-2.7-12.7c2.2-3.8,8.3-5,17-3.3c8.7,1.6,19,5.7,29.1,11.6c10.1,5.9,18.8,12.9,24.4,19.7
				c5.7,6.9,7.6,12.7,5.4,16.5c-4.5,7.7-25.2,4-46.1-8.3l0,0C106.9,91.8,97.2,83.1,92.2,75.6z M162.4,95c-0.8-1.2-1.7-2.5-2.8-3.7
				c-5.6-6.7-14.2-13.6-24.2-19.5s-20.3-10-28.9-11.6c-8.5-1.6-14.3-0.5-16.3,3c-4.3,7.3,9,23.1,29.6,35.2
				c20.6,12.1,40.9,15.9,45.2,8.5C166.6,104.2,165.6,100,162.4,95z"></path>
		</g>
		<g>
			<path d="M148.5,59.3l-24.4,41.7c-1.3-0.7-2.6-1.4-3.9-2.2c-1.4-0.8-2.8-1.7-4.2-2.6l24.4-41.7
				c1.2,1,2.6,1.9,4.1,2.8C145.9,58,147.2,58.7,148.5,59.3z" class="st10"></path>
		</g>
		<g class="st4">
			<path d="M164.9,107.7c-5.1,6.8-25,2.9-45.3-8.9c-20.3-11.9-33.4-27.4-30-35.1c0.7-0.9,1.4-1.7,2.1-2.5
				c15.9-17.9,39.8-24.1,57.8-13.5c18,10.5,24.3,34.4,16.5,57C165.7,105.7,165.3,106.7,164.9,107.7z" class="st11"></path>
			<path d="M92.3,75.7c-3.2-4.8-4.3-9-2.9-12.2l0-0.1c0.7-0.9,1.4-1.7,2.1-2.5c16.4-18.5,40.3-24.1,58.2-13.6
				c17.9,10.4,24.7,34.1,16.6,57.4c-0.4,1.1-0.7,2.1-1.2,3.1l0,0.1c-5.2,7-25.3,3.1-45.7-8.8C107,91.8,97.2,83.1,92.3,75.7z
				 M89.9,63.9c-3.3,7.5,10.1,23,29.8,34.6c19.8,11.6,39.8,15.6,44.8,9.1c0.4-1,0.8-2,1.1-3c8-23,1.2-46.3-16.3-56.6
				c-17.6-10.3-41.2-4.8-57.3,13.5C91.3,62.2,90.6,63,89.9,63.9z"></path>
		</g>
		<g class="st1">
			<path d="M159.1,59.5c1.5-2.6-2.8-7.9-9.5-11.8c-6.8-4-13.5-5.1-15-2.5c-1.5,2.6,2.8,7.9,9.5,11.8
				C150.8,60.9,157.6,62,159.1,59.5z M152.2,54.6c-0.7,1.1-3.7,0.5-6.9-1.3c-3.1-1.8-5.1-4.2-4.5-5.3c0.7-1.1,3.7-0.5,6.9,1.3
				C150.8,51.1,152.8,53.5,152.2,54.6z" class="st11"></path>
		</g>
		<g class="st12">
			<path d="M131,44.3c0,0-25.6,3-38.4,19.9c0,0,14-17.5,38.9-14.6c0,0,3.9,6.1,14,10C145.4,59.5,130.9,53.2,131,44.3z" class="st13"></path>
		</g>
		<g class="st1">
			<path d="M160.7,59.6c0,0,12.2,21.3,3,46.7c0,0-8.3,3.6-14.7,1.2c0,0,7.4,0.8,11.2-3.8C164,99.1,169.4,83,160.7,59.6
				z" class="st11"></path>
		</g>
		<g>
			<path d="M165.9,29.6c0.6-1-0.8-2.8-3-4.1c-2.2-1.3-4.5-1.6-5-0.6l0,0l-17.3,29.6c1.2,1,2.6,1.9,4.1,2.8
				c1.3,0.8,2.7,1.4,3.9,2L165.9,29.6L165.9,29.6z" class="st10"></path>
		</g>
		<g>
			
				<ellipse ry="4.1" rx="1.6" cy="27.2" cx="161.8" class="st14" transform="matrix(0.5051 -0.863 0.863 0.5051 56.6012 153.1282)"></ellipse>
		</g>
		<g class="st1">
			<path d="M145.6,53.4c-1.2-0.7-2.3-1.5-3.1-2.3l-2,3.4c1.2,1,2.6,1.9,4,2.7c0.1,0,0.1,0.1,0.2,0.1
				c0.4,0.2,0.9,0.5,1.3,0.7c0.9,0.5,1.7,0.9,2.5,1.2l0,0l2.3-3.9C149.5,55.3,147.5,54.6,145.6,53.4z" class="st11"></path>
		</g>
		<path d="M161.9,30.9l-35.5,62.9L164.3,31l-0.1,0C163.4,31.2,162.6,31.1,161.9,30.9L161.9,30.9z" class="st15"></path>
	</g>
	<g>
		<path d="M151.5,55.1l-1.1,0.2l15.1-25.9c0,0,0.7-1.8-2.7-3.7c-3.3-1.9-4.6-0.6-4.6-0.5l-15.4,26.3l-0.4-0.2l-0.3-0.3l15.3-26.2
			c0.1-0.1,1.8-2.1,5.8,0.2c4.1,2.4,3.1,4.8,3,4.9L151.5,55.1z"></path>
	</g>
	<path d="M164.7,30c-1,0.5-2.1,0.5-3.1,0.1c-0.5-0.2-1-0.5-1.3-0.8c-0.4-0.3-0.7-0.8-0.9-1.3l0,0c0.4,0.3,0.7,0.6,1.1,0.9
		c0.4,0.3,0.8,0.5,1.3,0.7C162.8,29.9,163.8,30.1,164.7,30L164.7,30z"></path>
	<g>
		<polygon points="116.5,96.4 115.7,96 142.1,50.8 142.4,51.2 142.8,51.4" class="st16"></polygon>
	</g>
	<g>
		<polygon points="124.5,101.2 123.7,100.7 150.3,55.3 151.5,55.1" class="st16"></polygon>
	</g>
</g>
</svg>
